   <svg width="192" height="85" viewBox="0 0 192 85" fill="none" xmlns="http://www.w3.org/2000/svg">
              <path d="M190.006 6.41476L187.398 0L176.082 5.91381C176.907 7.34154 177.969 9.50317 178.688 12.3336C179.111 13.9968 179.978 17.4008 179.447 20.5894C178.206 28.0561 169.73 32.1615 164.47 34.4934C161.924 35.6231 159.246 36.5549 156.502 37.2662C155.971 31.5678 154.354 25.877 151.672 20.7096C146.342 10.4324 135.175 5.08472 125.711 8.27081C122.267 9.43053 119.124 11.8026 116.683 14.9811C116.678 14.9761 116.674 14.9761 116.674 14.9761C109.863 8.9471 100.789 11.9078 94.8166 17.516C85.8543 25.9346 81.2767 39.7936 83.1543 52.8285C83.9241 58.1512 85.7513 63.2159 88.3877 67.6644C85.4639 71.92 62.4375 77.2652 53.8723 57.6577C55.2278 57.8406 74.6438 31.3574 77.311 14.8183L65.7057 10.6253C62.1195 23.5851 55.8705 35.4403 47.6364 45.1513C46.5638 41.8074 46.0045 38.947 45.6777 37.2813C44.434 30.9191 44.0875 14.9235 44.3375 10.6378L44.445 8.82687L31.1508 8.97967L31.1091 9.62089C30.8042 14.7833 31.1201 32.2742 32.741 40.5776C33.2411 43.145 34.34 48.7557 36.9019 55.0828C36.8427 55.3358 36.7966 55.5387 36.7374 55.7942C36.6233 55.8868 36.5071 55.9795 36.3908 56.0722C25.6234 64.6135 13.0025 69.8485 0 71.2938L0.0197407 85C15.4504 83.4921 30.5695 77.6134 43.3351 67.484C43.4273 67.4039 43.5238 67.3312 43.6203 67.2561C43.9252 67.6769 44.252 68.1127 44.5985 68.5711C50.3672 76.133 61.5031 85.1202 77.0829 84.9449C77.8374 84.9349 78.5985 84.8998 79.3728 84.8347L79.3684 84.7821C79.8992 84.7595 80.4388 84.7245 80.9762 84.6669C86.701 84.1033 92.3117 81.8239 97.4421 78.0567C99.5237 79.6698 101.768 81.0274 104.134 82.0544C108.313 83.8703 112.811 84.712 117.363 84.5942C122.465 84.459 127.63 83.1189 132.473 80.5866C140.569 76.3585 147.726 68.7915 152.617 59.2733C153.8 56.9739 154.723 54.5092 155.392 51.9393C160.059 51.025 164.661 49.5848 169.006 47.6561C181.347 42.1756 189.57 33.489 191.57 23.823C192.544 19.1266 191.796 10.8332 190.008 6.41226L190.006 6.41476ZM98.0892 58.6095C96.7775 56.1148 95.8541 53.367 95.4461 50.5366C94.288 42.4912 97.2228 33.6017 102.757 28.4068C104.527 26.7411 106.573 25.8594 107.902 25.8219C108.383 25.8093 108.769 25.9095 109.01 26.1199C109.44 26.5032 109.879 27.6679 109.888 29.1532C109.892 31.3023 109.172 33.8071 108.438 36.1892C105.406 45.9754 102.107 53.1291 98.0914 58.6095H98.0892ZM127.264 67.7495C121.223 70.9005 114.246 71.3188 108.593 68.8566C108.139 68.6588 107.692 68.4383 107.253 68.2029C111.717 62.2715 115.384 54.9976 118.635 45.6122C122.245 48.8935 127.117 51.1478 133.092 52.2574C135.77 52.7483 138.529 53.0389 141.341 53.1241C137.759 59.6966 132.787 64.8665 127.261 67.752L127.264 67.7495ZM135.103 38.2982C132.51 37.8248 126.299 36.2368 124.513 31.896C123.91 30.4232 123.998 28.4895 124.757 26.5883C125.669 24.2714 127.395 22.4479 129.251 21.8242C129.883 21.6088 130.547 21.4936 131.232 21.4761C134.848 21.3784 138.882 23.9333 140.935 27.8833C142.751 31.385 143.828 35.2123 144.159 38.992C141.038 39.0572 137.981 38.8292 135.101 38.2982H135.103Z" fill="#161032" />
            </svg>