<svg width="48" height="48" viewBox="0 0 48 48" fill="none" xmlns="http://www.w3.org/2000/svg">
<path fill-rule="evenodd" clip-rule="evenodd" d="M25.188 46.516L25.164 46.52L25.022 46.59L24.982 46.598L24.954 46.59L24.812 46.518C24.7906 46.5127 24.7746 46.5167 24.764 46.53L24.756 46.55L24.722 47.406L24.732 47.446L24.752 47.472L24.96 47.62L24.99 47.628L25.014 47.62L25.222 47.472L25.246 47.44L25.254 47.406L25.22 46.552C25.2146 46.5307 25.204 46.5187 25.188 46.516ZM25.716 46.29L25.688 46.294L25.32 46.48L25.3 46.5L25.294 46.522L25.33 47.382L25.34 47.406L25.356 47.422L25.758 47.606C25.7833 47.6127 25.8026 47.6073 25.816 47.59L25.824 47.562L25.756 46.334C25.7493 46.3087 25.736 46.294 25.716 46.29ZM24.286 46.294C24.2772 46.2887 24.2666 46.2869 24.2566 46.2892C24.2465 46.2914 24.2377 46.2974 24.232 46.306L24.22 46.334L24.152 47.562C24.1533 47.586 24.1646 47.602 24.186 47.61L24.216 47.606L24.618 47.42L24.638 47.404L24.644 47.382L24.68 46.522L24.674 46.498L24.654 46.478L24.286 46.294Z" fill="#F1F1F1"/>
<path fill-rule="evenodd" clip-rule="evenodd" d="M24 4C35.046 4 44 12.954 44 24C44.0069 28.6158 42.4106 33.0907 39.484 36.66L39.524 36.704L39.26 36.928C37.3843 39.1462 35.047 40.9283 32.4113 42.1498C29.7756 43.3713 26.905 44.0027 24 44C18.1 44 12.8 41.446 9.14002 37.386L8.74002 36.926L8.47602 36.706L8.51602 36.658C5.58983 33.0892 3.9936 28.6151 4.00002 24C4.00002 12.954 12.954 4 24 4ZM24 34C20.28 34 16.918 35.184 14.414 36.812C17.1792 38.8859 20.5436 40.0048 24 40C27.4565 40.0048 30.8208 38.8859 33.586 36.812C30.7246 34.9788 27.3983 34.0031 24 34ZM24 8C20.9891 7.99992 18.0392 8.84943 15.4895 10.4509C12.9397 12.0524 10.8936 14.3408 9.58634 17.0531C8.27905 19.7655 7.76363 22.7917 8.09932 25.7839C8.43501 28.776 9.6082 31.6128 11.484 33.968C14.726 31.642 19.15 30 24 30C28.85 30 33.274 31.642 36.516 33.968C38.3918 31.6128 39.565 28.776 39.9007 25.7839C40.2364 22.7917 39.721 19.7655 38.4137 17.0531C37.1064 14.3408 35.0603 12.0524 32.5106 10.4509C29.9608 8.84943 27.011 7.99992 24 8ZM24 12C26.1218 12 28.1566 12.8429 29.6569 14.3431C31.1572 15.8434 32 17.8783 32 20C32 22.1217 31.1572 24.1566 29.6569 25.6569C28.1566 27.1571 26.1218 28 24 28C21.8783 28 19.8435 27.1571 18.3432 25.6569C16.8429 24.1566 16 22.1217 16 20C16 17.8783 16.8429 15.8434 18.3432 14.3431C19.8435 12.8429 21.8783 12 24 12ZM24 16C22.9392 16 21.9217 16.4214 21.1716 17.1716C20.4214 17.9217 20 18.9391 20 20C20 21.0609 20.4214 22.0783 21.1716 22.8284C21.9217 23.5786 22.9392 24 24 24C25.0609 24 26.0783 23.5786 26.8284 22.8284C27.5786 22.0783 28 21.0609 28 20C28 18.9391 27.5786 17.9217 26.8284 17.1716C26.0783 16.4214 25.0609 16 24 16Z" fill="#ffffffff"/>
</svg>
